<svg width="282" height="198" viewBox="0 0 282 198" fill="none" xmlns="http://www.w3.org/2000/svg">
<path d="M155.696 107.377C174.058 107.377 191.87 113.87 205.435 126.594L281.449 197.797H245L187.362 143.826C178.884 135.913 167.58 131.681 155.71 131.681C143.841 131.681 132.536 135.913 124.058 143.826L66.4203 197.797H29.971L105.986 126.594C119.551 113.884 137.348 107.377 155.725 107.377H155.696ZM155.696 90.4348C137.333 90.4348 119.522 83.942 105.957 71.2174L29.9565 0H66.4058L124.043 53.971C132.522 61.8841 143.826 66.1159 155.696 66.1159C167.565 66.1159 178.87 61.8841 187.348 53.971L244.985 0H281.435L205.42 71.2029C191.855 83.9131 174.058 90.4203 155.681 90.4203L155.696 90.4348Z" fill="white"/>
<path d="M92.1159 98.9131L12.7101 166.159C6.78261 171.522 0 168.986 0 161.072V36.7391C0 28.8261 6.78261 26.2899 12.7101 31.6522L92.1159 98.8986V98.9131Z" fill="white"/>
</svg>
